<?xml version="1.0" standalone="no"?>
<!DOCTYPE svg PUBLIC "-//W3C//DTD SVG 20010904//EN"
 "http://www.w3.org/TR/2001/REC-SVG-20010904/DTD/svg10.dtd">
<svg version="1.0" xmlns="http://www.w3.org/2000/svg"
 width="1280.000000pt" height="1080.000000pt" viewBox="0 0 1280.000000 1080.000000"
 preserveAspectRatio="xMidYMid meet">
<metadata>
Created by potrace 1.15, written by Peter Selinger 2001-2017
</metadata>
<g transform="translate(0.000000,1080.000000) scale(0.100000,-0.100000)"
fill="#000000" stroke="none">
<path d="M11243 10755 c-45 -24 -103 -58 -129 -77 -25 -18 -54 -37 -63 -43 -9
-5 -50 -38 -92 -72 -42 -35 -81 -63 -86 -63 -4 0 -14 -9 -21 -20 -7 -11 -17
-20 -23 -20 -6 0 -32 -17 -58 -39 -72 -60 -234 -151 -270 -151 -11 0 -23 -5
-26 -10 -4 -6 -10 -8 -15 -5 -5 3 -12 0 -15 -6 -5 -7 -25 6 -54 34 -25 25 -63
52 -85 61 -42 18 -106 21 -134 7 -9 -4 -37 -18 -62 -30 -65 -30 -101 -57 -182
-133 -34 -32 -42 -35 -58 -25 -15 9 -29 8 -68 -6 -27 -10 -73 -20 -103 -22
-30 -2 -72 -13 -94 -25 -21 -11 -49 -20 -60 -20 -12 0 -25 -4 -31 -9 -5 -5
-45 -17 -89 -25 -44 -9 -96 -20 -115 -25 -128 -31 -339 -71 -376 -71 -23 0
-45 -4 -49 -9 -3 -6 -43 -7 -94 -4 -61 4 -90 2 -95 -6 -4 -6 -23 -11 -42 -11
-38 0 -123 -18 -139 -30 -5 -4 -22 -10 -37 -14 -14 -3 -44 -26 -66 -52 -40
-44 -41 -45 -69 -31 -41 21 -186 39 -249 31 -45 -5 -54 -10 -54 -27 0 -18 -5
-19 -42 -14 -24 3 -58 13 -76 23 -41 20 -48 14 -29 -23 8 -15 17 -40 21 -55 6
-28 6 -28 -43 -28 -27 0 -53 5 -56 10 -11 19 -25 -1 -25 -35 0 -19 -4 -36 -9
-40 -5 -3 -54 2 -109 11 -126 21 -183 14 -212 -26 -11 -15 -20 -35 -20 -44 0
-13 -15 -16 -97 -17 -139 -1 -204 -17 -221 -51 -11 -23 -20 -28 -51 -28 -20 0
-41 4 -46 9 -6 5 -74 12 -153 16 l-142 8 6 -55 6 -55 -58 -11 c-33 -6 -80 -14
-107 -18 -26 -3 -50 -10 -53 -15 -3 -5 -16 -9 -29 -9 -32 0 -41 -17 -20 -40
36 -40 -1 -59 -114 -61 -31 0 -78 -5 -106 -10 -27 -5 -60 -10 -72 -10 -12 1
-25 -4 -28 -9 -3 -6 -19 -10 -34 -10 -31 0 -170 -44 -211 -66 -14 -8 -61 -28
-105 -45 l-80 -32 -435 6 c-345 5 -470 3 -605 -9 -240 -22 -385 -27 -409 -15
-12 5 -75 12 -141 15 -146 8 -293 24 -320 37 -40 18 -238 27 -644 28 -268 1
-420 5 -433 12 -11 6 -51 8 -96 5 -138 -9 -333 -34 -347 -45 -5 -4 -39 -16
-75 -26 -62 -18 -197 -80 -250 -115 -14 -9 -45 -30 -70 -46 -95 -61 -340 -275
-340 -297 0 -4 -34 -47 -76 -95 -42 -48 -81 -97 -87 -109 -6 -13 -14 -23 -19
-23 -4 0 -8 -5 -8 -11 0 -6 -11 -24 -25 -41 -14 -16 -25 -35 -25 -43 0 -7 -7
-15 -15 -18 -8 -4 -21 -21 -30 -39 -9 -18 -26 -49 -38 -70 -96 -158 -307 -581
-307 -616 0 -6 -11 -33 -25 -59 -13 -27 -34 -75 -46 -108 -12 -33 -30 -78 -39
-100 -10 -22 -21 -56 -25 -75 -4 -19 -13 -44 -21 -55 -7 -11 -18 -42 -25 -70
-6 -27 -15 -54 -19 -60 -3 -5 -23 -64 -44 -130 -21 -66 -44 -133 -51 -150 -7
-16 -16 -49 -20 -72 -4 -24 -10 -45 -14 -48 -5 -2 -14 -26 -21 -52 -6 -27 -15
-57 -20 -68 -33 -87 -55 -165 -72 -250 -10 -55 -24 -111 -31 -124 -17 -33 -17
-821 -1 -842 31 -38 45 -797 15 -833 -6 -7 -7 -22 -4 -35 3 -12 1 -32 -5 -44
-6 -12 -16 -69 -22 -126 -6 -57 -15 -111 -20 -120 -8 -14 -34 -151 -45 -236
-7 -59 -40 -200 -50 -215 -5 -8 -11 -105 -13 -215 -4 -185 -2 -204 17 -253 12
-29 21 -57 21 -61 0 -5 -50 -62 -111 -127 -125 -135 -181 -212 -217 -299 -23
-56 -24 -69 -19 -188 2 -70 9 -133 14 -140 6 -6 16 -41 23 -77 7 -36 16 -69
20 -75 7 -10 23 -138 35 -275 3 -36 7 -126 9 -200 14 -479 34 -761 60 -875 4
-16 12 -52 18 -80 6 -27 22 -81 37 -118 22 -59 38 -80 104 -143 43 -41 83 -74
87 -74 5 0 29 -14 54 -31 74 -50 163 -81 231 -82 81 0 123 11 136 35 10 19 13
19 52 -20 67 -65 103 -76 245 -75 134 1 152 7 152 54 0 26 2 28 20 19 11 -5
29 -14 40 -20 35 -18 68 -11 103 23 19 18 39 48 44 67 11 38 6 97 -8 106 -5 3
-9 12 -9 21 0 34 -171 234 -228 267 -11 6 -35 23 -53 37 -33 24 -143 70 -202
83 -34 8 -67 59 -67 103 0 17 -4 34 -8 37 -5 3 -14 31 -21 63 -8 32 -16 62
-19 68 -3 5 -7 16 -8 25 -13 78 -36 186 -45 201 -5 11 -9 27 -8 37 1 9 -1 24
-4 32 -3 8 -8 44 -12 79 l-6 64 49 -42 c27 -22 55 -41 61 -41 6 0 11 -4 11 -8
0 -13 68 -42 85 -36 8 4 15 15 15 26 0 21 16 88 30 123 4 11 13 39 20 62 7 24
18 43 23 43 6 0 30 -21 55 -47 42 -46 44 -47 58 -28 8 10 14 26 14 35 0 9 4
20 9 25 10 12 38 122 54 218 11 64 14 69 51 90 22 12 42 29 46 37 4 8 14 30
23 48 23 45 40 204 35 308 -2 46 -2 84 2 84 3 0 15 -7 26 -15 42 -32 44 -26
44 185 l0 200 39 0 c31 0 46 7 70 31 17 17 34 43 37 57 3 15 10 35 15 46 6 10
13 76 16 147 l6 128 42 45 c34 37 45 58 57 116 9 39 14 79 11 89 -3 10 0 22 6
25 6 4 11 23 11 42 0 31 13 49 123 162 215 222 267 278 267 288 0 6 10 20 22
31 13 11 46 49 73 84 l50 63 3 -34 c5 -42 -17 -241 -27 -255 -4 -5 -14 -37
-21 -70 -7 -33 -16 -64 -20 -70 -4 -5 -10 -23 -14 -40 -4 -16 -16 -48 -27 -72
-10 -23 -19 -47 -19 -53 0 -16 -137 -279 -151 -290 -4 -3 -16 -23 -28 -45 -12
-22 -27 -49 -34 -60 -22 -35 -61 -100 -73 -120 -6 -11 -30 -49 -52 -85 -23
-36 -60 -95 -81 -131 -22 -36 -55 -84 -73 -107 -97 -119 -132 -169 -156 -220
-23 -51 -26 -69 -26 -172 1 -110 3 -119 38 -205 57 -136 256 -523 292 -565 6
-8 22 -33 34 -55 13 -22 53 -93 89 -158 74 -133 71 -127 127 -222 87 -149 114
-197 114 -206 0 -5 11 -31 24 -57 13 -26 26 -71 30 -101 14 -107 59 -213 115
-267 20 -19 43 -34 53 -34 9 0 20 -4 23 -10 4 -6 55 -10 119 -10 136 0 174
-13 212 -70 44 -67 91 -82 263 -87 80 -2 155 -8 166 -13 11 -5 38 -11 60 -14
22 -3 53 -9 69 -12 l29 -7 -6 56 c-6 49 -5 56 10 56 50 1 101 9 121 20 35 19
144 50 187 53 l40 3 3 84 c2 46 0 91 -4 100 -4 9 -6 21 -5 27 0 6 -17 31 -39
56 -42 49 -107 82 -180 92 -25 4 -54 11 -65 16 -11 4 -109 13 -218 19 l-198
10 -63 35 c-73 41 -183 153 -238 241 -37 59 -96 175 -126 245 -8 19 -21 46
-27 60 -7 14 -18 55 -26 93 -7 37 -17 67 -22 67 -5 0 -7 6 -4 14 3 7 2 17 -3
22 -5 5 -14 50 -21 99 -7 50 -15 92 -19 95 -13 10 -30 177 -30 294 0 115 14
240 30 261 4 6 11 28 15 49 7 41 52 132 102 207 16 23 33 49 38 58 6 9 35 47
65 86 30 38 57 75 60 82 3 6 43 58 90 114 162 195 639 656 793 767 46 33 187
173 198 197 5 11 34 49 64 85 30 36 55 69 55 74 0 5 6 17 14 25 24 26 112 212
126 266 7 28 17 55 21 60 4 6 13 33 19 60 6 28 14 59 19 70 5 11 15 54 21 95
7 41 16 80 20 85 4 6 13 51 20 100 6 50 19 113 27 141 l15 51 69 7 c38 3 77
10 87 15 9 5 28 13 42 19 14 5 37 14 53 21 l27 11 0 -56 c0 -48 4 -59 29 -85
28 -27 34 -29 110 -29 44 0 92 5 106 10 24 9 26 8 20 -7 -3 -10 -9 -39 -12
-66 -11 -88 36 -106 172 -67 38 11 71 20 73 20 2 0 2 -40 0 -90 -3 -83 -1 -90
18 -101 45 -24 173 21 289 101 58 40 75 39 75 -2 0 -72 72 -181 157 -239 l44
-30 67 42 c83 53 249 139 268 139 8 0 14 -6 14 -13 0 -8 9 -22 20 -32 11 -10
20 -24 20 -32 0 -7 4 -13 9 -13 9 0 89 -160 111 -220 6 -19 16 -44 20 -55 41
-101 105 -351 121 -470 6 -49 15 -94 19 -100 4 -5 13 -62 20 -125 7 -63 17
-120 23 -127 5 -7 8 -45 6 -85 -1 -40 1 -80 4 -88 3 -8 8 -70 11 -136 6 -136
11 -154 36 -154 20 0 33 -29 50 -110 6 -30 16 -65 22 -77 6 -12 8 -34 5 -50
-12 -63 -39 -169 -49 -187 -6 -12 -6 -22 1 -29 6 -6 11 -24 11 -39 0 -28 0
-28 65 -28 55 0 65 -3 65 -17 0 -47 32 -278 39 -287 5 -6 14 -42 21 -81 7 -38
16 -74 20 -80 4 -5 12 -41 17 -80 9 -62 8 -100 -8 -295 -2 -28 20 -132 32
-146 6 -8 26 -18 43 -22 26 -7 32 -14 34 -43 2 -18 7 -38 11 -44 5 -5 14 -62
21 -125 7 -63 16 -119 20 -125 3 -5 5 -21 4 -35 -2 -14 1 -34 6 -45 4 -11 14
-83 20 -160 7 -77 16 -142 20 -145 4 -3 13 -57 20 -120 7 -63 17 -120 22 -127
6 -7 7 -17 3 -24 -4 -6 -3 -21 3 -32 5 -12 17 -51 25 -87 18 -75 72 -196 122
-270 19 -29 35 -55 35 -59 0 -17 91 -89 145 -115 33 -16 69 -34 80 -40 11 -5
66 -12 122 -14 98 -4 105 -3 150 24 26 15 55 37 64 48 16 20 16 20 53 -2 47
-28 122 -29 192 -3 35 12 57 15 68 9 21 -12 187 -5 240 10 21 6 44 16 50 22 6
6 11 45 10 93 0 67 -5 92 -27 137 -54 114 -222 279 -425 418 -66 45 -138 103
-160 129 -46 56 -95 149 -112 213 -6 25 -17 61 -25 81 -7 20 -17 65 -20 100
-4 35 -10 73 -15 84 -11 25 -41 285 -40 343 0 23 -3 48 -7 55 -4 6 -16 62 -25
122 -9 61 -22 140 -28 178 -5 37 -15 97 -20 135 -36 230 -46 288 -53 300 -5 7
-8 32 -6 55 1 23 -1 49 -4 57 -3 8 -11 65 -17 125 -7 61 -16 115 -21 121 -5 6
-13 75 -20 155 -6 79 -15 149 -21 156 -5 7 -8 29 -7 50 2 21 0 43 -3 49 -4 5
-11 102 -18 214 -6 113 -15 221 -20 240 -13 48 -33 559 -24 615 5 38 10 46 33
51 30 7 124 44 198 81 53 26 73 24 73 -5 0 -17 16 -64 38 -112 6 -14 29 -65
50 -115 22 -49 54 -120 71 -157 17 -36 31 -72 31 -80 0 -7 6 -22 13 -33 7 -11
19 -40 26 -65 7 -25 17 -54 22 -65 4 -11 13 -40 20 -65 6 -25 15 -54 19 -65 5
-11 16 -81 25 -155 9 -74 21 -153 28 -175 18 -59 17 -717 -1 -723 -28 -9 11
-32 54 -32 35 0 44 -4 45 -17 1 -10 4 -103 8 -208 l6 -190 42 -3 42 -3 -6 -67
c-3 -37 -10 -75 -14 -84 -12 -22 -12 -201 0 -214 4 -5 14 -31 21 -59 7 -27 22
-62 32 -77 10 -14 18 -31 18 -37 0 -7 6 -22 14 -34 8 -12 20 -47 27 -77 7 -30
17 -61 22 -67 5 -7 13 -113 17 -234 5 -133 13 -226 19 -232 6 -6 11 -22 11
-35 0 -23 38 -145 64 -207 36 -83 40 -114 41 -265 1 -180 14 -217 88 -271 44
-33 124 -72 167 -84 3 0 21 -6 40 -12 19 -7 68 -15 108 -18 39 -4 75 -11 78
-16 3 -6 24 -10 47 -10 23 0 92 -1 152 -3 104 -3 110 -4 113 -25 3 -20 9 -21
113 -21 60 0 117 4 127 9 9 6 34 13 55 16 45 7 107 58 107 88 0 20 2 19 28 -7
l29 -27 56 21 c77 29 117 68 117 114 0 50 -18 74 -124 165 -91 78 -105 96
-131 171 -40 117 -95 154 -260 175 -16 2 -52 8 -79 14 -28 6 -52 8 -55 3 -12
-16 -61 -42 -80 -42 -34 0 -77 47 -110 122 -18 40 -37 81 -42 91 -5 9 -12 38
-16 62 -3 25 -9 48 -14 51 -4 2 -6 11 -2 19 3 8 1 15 -5 15 -5 0 -15 39 -22
88 -7 48 -16 96 -20 107 -4 11 -14 61 -20 110 -7 50 -16 95 -20 100 -5 6 -13
53 -19 105 -6 52 -14 120 -17 150 -4 30 -10 60 -14 65 -4 6 -13 78 -19 160 -7
83 -14 166 -17 185 -3 19 -12 105 -20 190 -8 85 -18 162 -22 170 -4 8 -7 42
-8 75 -1 33 -6 105 -12 160 -6 55 -14 174 -18 265 -3 91 -10 169 -15 174 -13
14 -12 403 1 411 6 3 10 36 10 73 0 37 5 119 11 182 13 149 15 162 24 182 4 9
4 22 0 28 -4 6 -2 16 3 23 5 7 15 44 22 82 7 39 16 75 19 80 4 6 13 35 20 65
8 30 17 60 21 65 4 6 13 32 20 60 16 57 80 185 136 271 21 32 44 69 51 81 12
23 102 144 113 153 4 3 9 12 13 20 4 8 29 49 57 90 27 41 55 86 61 100 41 89
71 166 93 240 15 47 30 94 35 105 5 11 15 48 22 83 6 34 15 65 20 67 4 3 13
31 19 63 7 31 22 78 34 105 18 40 27 49 61 58 22 6 48 15 57 20 10 5 24 9 33
9 8 0 30 16 49 35 20 19 40 35 45 35 6 0 23 -16 38 -35 15 -19 33 -35 38 -35
14 0 75 101 75 122 0 33 18 27 59 -17 23 -25 45 -45 49 -45 4 0 18 26 30 58
13 31 28 65 33 74 5 10 9 24 9 31 0 7 5 18 11 24 8 8 26 0 68 -31 115 -88 114
-87 125 -24 4 20 22 60 41 89 19 28 35 54 35 58 0 4 22 28 48 54 l49 48 26
-60 c23 -54 47 -79 47 -51 0 6 24 43 54 83 72 97 103 161 115 240 1 10 54 -18
70 -37 7 -9 18 -13 23 -10 13 8 79 146 73 152 -3 3 -1 10 5 17 5 6 14 65 21
131 6 65 15 123 20 129 5 5 9 18 9 29 0 10 12 39 26 64 l26 45 58 -6 c32 -4
85 -15 117 -26 32 -10 78 -24 103 -31 25 -6 53 -16 63 -21 10 -6 55 -15 100
-21 45 -6 91 -14 102 -19 32 -14 304 -39 423 -39 105 0 265 20 307 39 11 5 43
15 70 22 28 6 55 15 60 19 6 4 33 13 60 20 162 42 398 141 418 176 4 8 14 14
21 14 16 0 58 44 85 90 27 45 28 132 4 178 -40 72 -88 123 -199 208 -71 55
-261 184 -271 184 -2 0 -26 16 -53 35 -27 19 -52 35 -55 35 -11 0 -164 108
-216 152 -31 26 -60 48 -63 48 -24 0 -346 356 -393 435 -33 53 -123 242 -123
256 0 8 -4 19 -9 25 -5 5 -17 68 -26 139 -9 72 -21 139 -25 150 -5 11 -13 74
-19 140 -6 71 -16 132 -25 150 -9 17 -16 38 -16 47 0 9 -4 20 -10 23 -5 3 -10
16 -10 28 0 12 -18 45 -40 72 -22 28 -45 60 -51 72 -7 13 -20 25 -29 28 -9 3
-27 16 -38 28 l-22 23 25 24 c14 13 25 28 25 32 0 5 11 24 24 41 13 18 39 66
56 107 18 41 36 84 41 95 4 11 16 47 25 80 9 33 21 67 25 75 5 8 16 56 24 105
7 50 18 113 24 140 11 55 15 284 5 309 -9 24 -31 19 -121 -29z"/>
</g>
</svg>
